<?xml version="1.0" standalone="no"?><!DOCTYPE svg PUBLIC "-//W3C//DTD SVG 1.1//EN" "http://www.w3.org/Graphics/SVG/1.1/DTD/svg11.dtd"><svg class="icon" height="512" viewBox="0 0 1562 1024" version="1.1" xmlns="http://www.w3.org/2000/svg"><path d="M380.041237 965.938144a411.71134 58.061856 0 1 0 823.422681 0 411.71134 58.061856 0 1 0-823.422681 0Z" fill="#EAEAEA" /><path d="M1446.268041 411.71134m-21.113402 0a21.113402 21.113402 0 1 0 42.226804 0 21.113402 21.113402 0 1 0-42.226804 0Z" fill="#55B8FA" /><path d="M237.525773 638.680412m-15.835051 0a15.835052 15.835052 0 1 0 31.670103 0 15.835052 15.835052 0 1 0-31.670103 0Z" fill="#A1D8FD" /><path d="M179.463918 733.690722c0-20.057732-16.890722-36.948454-36.948454-36.948454s-36.948454 16.890722-36.948454 36.948454 16.890722 36.948454 36.948454 36.948453 36.948454-16.890722 36.948454-36.948453z m-95.01031 0c0-31.670103 26.391753-58.061856 58.061856-58.061856s58.061856 26.391753 58.061856 58.061856-26.391753 58.061856-58.061856 58.061855-58.061856-26.391753-58.061856-58.061855z" fill="#80CBFD" /><path d="M1203.463918 36.948454c0-20.057732-16.890722-36.948454-36.948454-36.948454s-36.948454 16.890722-36.948454 36.948454 16.890722 36.948454 36.948454 36.948453 36.948454-16.890722 36.948454-36.948453z m-52.783506 0c0-8.445361 7.389691-15.835052 15.835052-15.835052s15.835052 7.389691 15.835051 15.835052-7.389691 15.835052-15.835051 15.835051-15.835052-7.389691-15.835052-15.835051zM1508.552577 642.903093h-17.946391c-6.334021 0-11.612371 5.278351-11.612372 11.612371 0 6.334021 5.278351 11.612371 11.612372 11.612371h17.946391v17.946392c0 6.334021 5.278351 11.612371 11.612371 11.612371 6.334021 0 11.612371-5.278351 11.612372-11.612371v-17.946392h17.946391c6.334021 0 11.612371-5.278351 11.612371-11.612371 0-6.334021-5.278351-11.612371-11.612371-11.612371h-17.946391v-17.946392c0-6.334021-5.278351-11.612371-11.612372-11.612371-6.334021 0-11.612371 5.278351-11.612371 11.612371v17.946392z" fill="#A1D8FD" /><path d="M1373.426804 623.901031h-6.33402c-2.11134 0-4.22268 2.11134-4.222681 4.22268s2.11134 4.22268 4.222681 4.222681h6.33402v6.33402c0 2.11134 2.11134 4.22268 4.222681 4.222681s4.22268-2.11134 4.22268-4.222681v-6.33402h6.334021c2.11134 0 4.22268-2.11134 4.22268-4.222681s-2.11134-4.22268-4.22268-4.22268h-6.334021v-6.334021c0-2.11134-2.11134-4.22268-4.22268-4.22268s-4.22268 2.11134-4.222681 4.22268v6.334021z" fill="#19A5FF" /><path d="M42.226804 327.257732h-31.670103c-5.278351 0-10.556701 4.22268-10.556701 10.556701s4.22268 10.556701 10.556701 10.556701h31.670103v31.670103c0 5.278351 4.22268 10.556701 10.556701 10.556701s10.556701-4.22268 10.556701-10.556701v-31.670103h31.670103c5.278351 0 10.556701-4.22268 10.556701-10.556701s-4.22268-10.556701-10.556701-10.556701h-31.670103v-31.670103c0-5.278351-4.22268-10.556701-10.556701-10.556701s-10.556701 4.22268-10.556701 10.556701v31.670103z" fill="#80CBFD" /><path d="M1266.804124 642.903093c24.280412 23.224742 33.781443 57.006186 33.781443 89.731959 0 33.781443-38.004124 79.175258-76.008247 96.065979h-792.808248c-63.340206-31.670103-105.56701-89.731959-105.56701-157.294845 0-4.22268 0-9.501031 1.05567-13.723712-23.224742-20.057732-55.950515-59.117526-58.061856-110.845361-3.16701-81.286598 64.395876-141.459794 80.230928-160.461855 15.835052-19.002062 40.115464-54.894845 57.006186-64.395877s143.571134 21.113402 125.624742 51.727835c-17.946392 30.614433-60.173196 54.894845-80.230928 51.727836-20.057732-3.16701-28.503093-10.556701-51.727835-6.334021s-72.841237 68.618557-74.952577 115.068041c-1.05567 21.113402 12.668041 38.004124 26.391752 50.672165 36.948454-57.006186 107.678351-95.010309 188.964949-95.010309 26.391753-154.127835 160.461856-256.527835 317.756701-256.527835 167.851546 0 302.97732 80.230928 320.923711 308.25567 2.11134 25.336082 1.05567 48.560825-1.05567 70.729897 10.556701 0 20.057732 2.11134 28.503093 3.16701l31.670103 12.668041 28.503093 14.779382z" fill="#FFFFFF" /><path d="M1214.020619 612.28866h-31.670104s10.556701-158.350515-42.226804-232.247423-105.56701-147.793814-263.917525-147.793814-137.237113 31.670103-137.237114 31.670103l31.670103 21.113402s105.56701-31.670103 190.020619 0c-13.723711 0-24.280412 4.22268-28.503093 12.668041-9.501031 16.890722 8.445361 46.449485 41.171134 65.451546 32.725773 19.002062 67.562887 20.057732 77.063918 3.167011 4.22268-7.389691 3.16701-17.946392-3.167011-29.558763 40.115464 35.892784 69.674227 85.509278 82.342268 148.849484 21.113402 103.45567 0 168.907216 0 168.907217s84.453608-21.113402 116.123712 31.670103 10.556701 126.680412 10.556701 126.680412 42.226804-31.670103 42.226804-73.896907-31.670103-95.010309-31.670103-95.010309-7.389691-10.556701-23.224743-20.057732c-11.612371-7.389691-29.558763-11.612371-29.558762-11.612371z" fill="#E1F2FD" /><path d="M931.101031 696.742268c-34.837113 45.393814-90.787629 76.008247-152.016495 76.008247-59.117526 0-111.901031-26.391753-146.738144-68.618556-5.278351-7.389691 9.501031-22.169072 17.946392-13.723712 31.670103 36.948454 77.063918 60.173196 128.791752 60.173196 53.839175 0 102.4-25.336082 134.070103-65.451546 6.334021-8.445361 24.280412 5.278351 17.946392 11.612371z" fill="#90999F" /><path d="M1249.913402 617.56701c-20.057732-11.612371-45.393814-14.779381-45.393814-14.779381-4.22268-1.05567-9.501031-1.05567-13.723712-2.11134 2.11134-20.057732 2.11134-40.115464 0-62.284536-16.890722-215.356701-138.292784-317.756701-331.480412-317.756701-161.517526 0-296.643299 104.51134-326.202062 256.527835-74.952577 2.11134-141.459794 35.892784-181.575258 89.731958-9.501031-10.556701-14.779381-22.169072-13.723711-33.781443 1.05567-38.004124 44.338144-101.34433 65.451546-105.56701 9.501031-2.11134 15.835052-1.05567 25.336083 1.05567 1.05567 0 2.11134 1.05567 3.16701 1.05567 2.11134 0 3.16701 1.05567 4.222681 1.05567 6.334021 2.11134 10.556701 3.16701 14.779381 3.16701 26.391753 4.22268 72.841237-24.280412 90.787629-57.006185 7.389691-12.668041 1.05567-25.336082-12.668041-35.892784-10.556701-7.389691-25.336082-13.723711-43.282475-20.057732-34.837113-11.612371-71.785567-16.890722-84.453608-9.501031-8.445361 5.278351-17.946392 14.779381-30.614433 28.503093-2.11134 3.16701-5.278351 6.334021-8.445361 10.556701 1.05567-2.11134-17.946392 22.169072-22.169072 27.447423-2.11134 2.11134-14.779381 15.835052-15.835051 16.890722-8.445361 9.501031-15.835052 17.946392-23.224743 28.503092-29.558763 39.059794-45.393814 79.175258-43.282474 122.457732 2.11134 45.393814 24.280412 83.397938 58.061856 115.068042v9.50103c0 69.674227 43.282474 131.958763 110.845361 166.795877l5.27835 1.05567h792.808248l4.22268-1.05567c42.226804-19.002062 82.342268-68.618557 82.342268-105.567011 0-34.837113-9.501031-64.395876-28.503093-87.620618 0 1.05567-15.835052-15.835052-32.725773-26.391753z m9.501031 32.725774c20.057732 19.002062 30.614433 47.505155 30.614433 81.286597 0 27.447423-32.725773 69.674227-67.562887 85.509279h-787.529897c-60.173196-31.670103-97.121649-86.564948-97.121649-146.738145 0-4.22268 0-8.445361 1.05567-12.668041v-5.27835l-4.22268-3.167011c-31.670103-28.503093-52.783505-63.340206-54.894846-103.45567-1.05567-38.004124 12.668041-73.896907 39.059794-108.73402 6.334021-9.501031 13.723711-16.890722 22.169072-26.391753 1.05567-1.05567 13.723711-14.779381 15.835052-17.946392 4.22268-5.278351 23.224742-29.558763 22.169072-27.447422 3.16701-3.16701 5.278351-7.389691 8.445361-9.501031 10.556701-12.668041 19.002062-21.113402 24.280412-24.280413 4.22268-2.11134 38.004124 2.11134 67.562887 11.612372 15.835052 5.278351 29.558763 11.612371 36.948453 16.890721 4.22268 3.16701 6.334021 5.278351 7.389691 7.389691-14.779381 26.391753-52.783505 50.672165-69.674227 47.505155-4.22268-1.05567-7.389691-1.05567-12.668041-3.167011-1.05567 0-2.11134 0-4.22268-1.05567-1.05567 0-3.16701-1.05567-4.222681-1.05567-11.612371-3.16701-22.169072-4.22268-34.837113-1.05567-31.670103 6.334021-81.286598 78.119588-83.397938 125.624742-1.05567 22.169072 10.556701 42.226804 29.558763 59.117526l9.501031 8.445361 6.33402-10.556701c35.892784-54.894845 103.45567-90.787629 179.463918-90.787629h8.445361l1.05567-8.445361c25.336082-146.738144 153.072165-248.082474 307.2-248.082474 182.630928 0 293.476289 95.010309 310.36701 297.698969 2.11134 24.280412 1.05567 47.505155-1.05567 68.618557l-1.05567 11.612371h11.612371c9.501031 0 17.946392 1.05567 26.391752 3.16701 0 0 15.835052 2.11134 30.614433 10.556701 11.612371 4.22268 26.391753 14.779381 26.391753 14.779382z" fill="#90999F" /><path d="M884.651546 345.204124c-15.835052-21.113402-32.725773-40.115464-46.449484-57.006186-2.11134-17.946392-9.501031-38.004124-24.280413-58.061856l-9.50103-12.668041c-60.173196-82.342268-78.119588-107.678351-143.571134-100.28866-28.503093 3.16701-245.971134 43.282474-271.307217 51.727835-16.890722 6.334021-36.948454 30.614433-46.449484 59.117526-9.501031 29.558763-7.389691 57.006186 6.33402 78.119588 28.503093 42.226804 59.117526 50.672165 89.731959 58.061856 4.22268 1.05567 9.501031 2.11134 13.723711 4.22268l23.224742 6.334021c33.781443 9.501031 76.008247 22.169072 91.843299 25.336082 2.11134 0 4.22268 1.05567 7.389691 1.05567h8.445361c32.725773 14.779381 77.063918 34.837113 87.620619 40.115464 16.890722 8.445361 53.839175 14.779381 74.952577-6.334021 10.556701-11.612371 16.890722-41.171134 5.27835-51.727835-22.169072-17.946392-7.389691-6.334021 16.890722 12.668042 20.057732 15.835052 47.505155 32.725773 74.952577 31.670103 31.670103 1.05567 68.618557-46.449485 41.171134-82.342268z m-188.964948-25.336083l-188.964949 38.004124s3.16701 3.16701 8.445361 6.334021c-11.612371-3.16701-23.224742-6.334021-32.725773-9.501031l-23.224742-6.334021c-5.278351-1.05567-9.501031-3.16701-14.779382-4.22268-28.503093-7.389691-52.783505-13.723711-77.063917-49.616495-13.723711-21.113402-8.445361-46.449485-4.222681-60.173196 8.445361-25.336082 24.280412-43.282474 32.725774-46.449485 22.169072-7.389691 236.470103-47.505155 267.084536-50.672165 52.783505-5.278351 65.451546 11.612371 124.569072 91.843299l9.501031 12.668042v1.05567l-101.34433 77.063917z" fill="#90999F" /><path d="M393.764948 179.463918c-24.280412 8.445361-64.395876 76.008247-34.837113 121.402061 30.614433 45.393814 63.340206 47.505155 97.12165 58.061856 32.725773 9.501031 93.954639 27.447423 114.012371 31.670103s121.402062-21.113402 137.237113-25.336082 92.898969-20.057732 108.734021-38.004124c19.002062-21.113402 11.612371-58.061856-11.612371-89.731959-67.562887-91.843299-81.286598-115.068041-143.571134-108.73402-27.447423 2.11134-242.804124 42.226804-267.084537 50.672165z" fill="#CAD1D6" /><path d="M415.934021 195.298969c-41.171134 10.556701-47.505155 59.117526-45.393815 77.063918 2.11134 17.946392 17.946392 68.618557 85.509279 58.061855 122.457732-20.057732 78.119588-120.346392 85.509278-121.402062 7.389691-2.11134-1.05567 109.789691 165.740206 64.395877 67.562887-17.946392 44.338144-70.729897 34.837113-89.731959-21.113402-40.115464-54.894845-36.948454-97.121649-31.670103-41.171134 3.16701-141.459794 21.113402-229.080412 43.282474z" fill="#FFFFFF" /><path d="M770.639175 443.381443m-21.113402 0a21.113402 21.113402 0 1 0 42.226804 0 21.113402 21.113402 0 1 0-42.226804 0Z" fill="#90999F" /><path d="M897.319588 432.824742m-21.113402 0a21.113402 21.113402 0 1 0 42.226804 0 21.113402 21.113402 0 1 0-42.226804 0Z" fill="#90999F" /></svg>